<?xml version="1.0" encoding="UTF-8" standalone="no"?>
<svg
   width="32"
   height="32"
   viewBox="0 0 32 32"
   fill="none"
   version="1.1"
   id="svg1"
   sodipodi:docname="icon-loc-bg.svg"
   xml:space="preserve"
   inkscape:version="1.3.2 (091e20e, 2023-11-25, custom)"
   xmlns:inkscape="http://www.inkscape.org/namespaces/inkscape"
   xmlns:sodipodi="http://sodipodi.sourceforge.net/DTD/sodipodi-0.dtd"
   xmlns="http://www.w3.org/2000/svg"
   xmlns:svg="http://www.w3.org/2000/svg"><defs
     id="defs1"><inkscape:path-effect
       effect="powerclip"
       id="path-effect72"
       is_visible="true"
       lpeversion="1"
       inverse="true"
       flatten="false"
       hide_clip="false"
       message="Use fill-rule evenodd on &lt;b&gt;fill and stroke&lt;/b&gt; dialog if no flatten result after convert clip to paths." /><inkscape:path-effect
       effect="powerclip"
       id="path-effect70"
       is_visible="true"
       lpeversion="1"
       inverse="true"
       flatten="false"
       hide_clip="false"
       message="Use fill-rule evenodd on &lt;b&gt;fill and stroke&lt;/b&gt; dialog if no flatten result after convert clip to paths." /><inkscape:path-effect
       effect="powerclip"
       id="path-effect15"
       is_visible="true"
       lpeversion="1"
       inverse="true"
       flatten="false"
       hide_clip="false"
       message="Use fill-rule evenodd on &lt;b&gt;fill and stroke&lt;/b&gt; dialog if no flatten result after convert clip to paths." /><filter
       id="mask-powermask-path-effect58_inverse"
       inkscape:label="filtermask-powermask-path-effect58"
       style="color-interpolation-filters:sRGB"
       height="100"
       width="100"
       x="-50"
       y="-50"><feColorMatrix
         id="mask-powermask-path-effect58_primitive1"
         values="1"
         type="saturate"
         result="fbSourceGraphic" /><feColorMatrix
         id="mask-powermask-path-effect58_primitive2"
         values="-1 0 0 0 1 0 -1 0 0 1 0 0 -1 0 1 0 0 0 1 0 "
         in="fbSourceGraphic" /></filter><clipPath
       clipPathUnits="userSpaceOnUse"
       id="clipPath70"><path
         style="color:#000000;display:none;fill:#ffffff;fill-opacity:0;stroke:#ffffff;stroke-width:0.889;stroke-linecap:round;stroke-linejoin:round;stroke-dasharray:none;stroke-opacity:0"
         d="m 16,3.6978625 c -5.146887,0 -9.3128854,4.5268256 -9.3128854,10.0493965 0,2.793185 1.1687477,5.268532 2.7977607,7.557987 1.6290137,2.289456 3.7365557,4.441815 5.8055237,6.681183 a 0.98902939,1.0407503 0 0 0 1.419202,0 c 2.068968,-2.239368 4.17651,-4.391727 5.805524,-6.681183 1.629013,-2.289455 2.79776,-4.764802 2.79776,-7.557987 C 25.312885,8.2246898 21.146898,3.6978625 16,3.6978625 Z m 0,2.0815206 c 4.047445,0 7.334807,3.5388727 7.334807,7.9678759 0,2.18254 -0.910711,4.212975 -2.403161,6.310501 C 19.626875,21.891516 17.814121,23.771915 16,25.721349 14.185879,23.771915 12.373125,21.891516 11.068354,20.05776 9.5759044,17.960234 8.6651924,15.929799 8.6651924,13.747259 8.6651924,9.3182575 11.952569,5.7793831 16,5.7793831 Z"
         id="path70" /><path
         id="lpe_path-effect70"
         style="color:#000000;fill:#ffffff;fill-opacity:0;stroke:#ffffff;stroke-width:0.889;stroke-linecap:round;stroke-linejoin:round;stroke-dasharray:none;stroke-opacity:0"
         class="powerclip"
         d="M -5,-5 H 37.000004 V 36.999136 H -5 Z m 21,8.6978625 c -5.146887,0 -9.3128854,4.5268256 -9.3128854,10.0493965 0,2.793185 1.1687477,5.268532 2.7977607,7.557987 1.6290137,2.289456 3.7365557,4.441815 5.8055237,6.681183 a 0.98902939,1.0407503 0 0 0 1.419202,0 c 2.068968,-2.239368 4.17651,-4.391727 5.805524,-6.681183 1.629013,-2.289455 2.79776,-4.764802 2.79776,-7.557987 C 25.312885,8.2246898 21.146898,3.6978625 16,3.6978625 Z m 0,2.0815206 c -4.047431,0 -7.3348076,3.5388744 -7.3348076,7.9678759 0,2.18254 0.910712,4.212975 2.4031616,6.310501 1.304771,1.833756 3.117525,3.714155 4.931646,5.663589 1.814121,-1.949434 3.626875,-3.829833 4.931646,-5.663589 1.49245,-2.097526 2.403161,-4.127961 2.403161,-6.310501 0,-4.4290032 -3.287362,-7.9678759 -7.334807,-7.9678759 z" /></clipPath><clipPath
       clipPathUnits="userSpaceOnUse"
       id="clipPath72"><path
         style="color:#000000;display:none;fill:#ffffff;fill-opacity:0;stroke:#ffffff;stroke-width:0.889;stroke-linecap:round;stroke-linejoin:round;stroke-dasharray:none;stroke-opacity:0"
         d="m 16,10.174101 c -1.734788,0 -3.158489,1.498192 -3.158489,3.323661 0,1.825493 1.423714,3.321878 3.158489,3.321878 1.734775,0 3.158489,-1.496385 3.158489,-3.321878 0,-1.825469 -1.423701,-3.323661 -3.158489,-3.323661 z m 0,1.641336 c 0.892236,0 1.59872,0.743465 1.59872,1.682325 0,0.938908 -0.706471,1.682325 -1.59872,1.682325 -0.892249,0 -1.59872,-0.743417 -1.59872,-1.682325 0,-0.93886 0.706484,-1.682325 1.59872,-1.682325 z"
         id="path72" /><path
         id="lpe_path-effect72"
         style="color:#000000;fill:#ffffff;fill-opacity:0;stroke:#ffffff;stroke-width:0.889;stroke-linecap:round;stroke-linejoin:round;stroke-dasharray:none;stroke-opacity:0"
         class="powerclip"
         d="M -5,-5 H 37.000004 V 36.999136 H -5 Z m 21,15.174101 c -1.734788,0 -3.158489,1.498192 -3.158489,3.323661 0,1.825493 1.423714,3.321878 3.158489,3.321878 1.734775,0 3.158489,-1.496385 3.158489,-3.321878 0,-1.825469 -1.423701,-3.323661 -3.158489,-3.323661 z m 0,1.641336 c -0.892236,0 -1.59872,0.743465 -1.59872,1.682325 0,0.938908 0.706471,1.682325 1.59872,1.682325 0.892249,0 1.59872,-0.743417 1.59872,-1.682325 0,-0.93886 -0.706484,-1.682325 -1.59872,-1.682325 z" /></clipPath></defs><sodipodi:namedview
     id="namedview1"
     pagecolor="#ffffff"
     bordercolor="#000000"
     borderopacity="0.25"
     inkscape:showpageshadow="2"
     inkscape:pageopacity="0.0"
     inkscape:pagecheckerboard="0"
     inkscape:deskcolor="#d1d1d1"
     inkscape:zoom="12.140625"
     inkscape:cx="20.221364"
     inkscape:cy="7.4543115"
     inkscape:window-width="1920"
     inkscape:window-height="991"
     inkscape:window-x="2391"
     inkscape:window-y="272"
     inkscape:window-maximized="1"
     inkscape:current-layer="svg1" /><g
     id="g72"
     clip-path="url(#clipPath72)"
     inkscape:path-effect="#path-effect72"><path
       d="m 17.6448,0 c 1.7999,0.00479975 2.7135,0.0143993 3.5022,0.0367981 l 0.3104,0.0111994 c 0.3584,0.0127993 0.712,0.0287985 1.1392,0.0479975 1.7023,0.079996 2.8638,0.348782 3.883,0.743962 1.0559,0.406383 1.9455,0.956753 2.835,1.844703 0.8136,0.7998 1.4431,1.76725 1.8447,2.83506 0.3952,1.01915 0.664,2.18069 0.744,3.8846 0.0192,0.42558 0.0352,0.77918 0.048,1.13918 l 0.0096,0.3103 c 0.024,0.7872 0.0336,1.7008 0.0368,3.5007 l 0.0016,1.1935 v 2.0959 c 0.0039,1.167 -0.0084,2.334 -0.0368,3.5006 l -0.0096,0.3104 c -0.0128,0.36 -0.0288,0.7136 -0.048,1.1391 -0.08,1.704 -0.352,2.8639 -0.7456,3.8846 -0.4005,1.0684 -1.0301,2.0361 -1.8447,2.8351 -0.8,0.8133 -1.7674,1.4427 -2.835,1.8447 -1.0192,0.3952 -2.1807,0.664 -3.883,0.744 -0.3797,0.0178 -0.7594,0.0338 -1.1392,0.048 L 21.147,31.96 c -0.7887,0.0224 -1.7023,0.0336 -3.5022,0.0368 l -1.1935,0.0016 H 14.357 c -1.1675,0.004 -2.3351,-0.0083 -3.5022,-0.0368 L 10.5444,31.952 C 10.1646,31.9376 9.78486,31.921 9.40524,31.9024 7.70293,31.8224 6.54139,31.5536 5.52064,31.1584 4.45297,30.7574 3.48589,30.1278 2.68719,29.3137 1.8729,28.5142 1.24282,27.5467 0.84088,26.4786 0.4457,25.4595 0.176914,24.298 0.0969181,22.594 0.0790932,22.2144 0.0630938,21.8347 0.0489207,21.4549 L 0.0409213,21.1445 C 0.011438,19.9779 -0.00189604,18.8109 9.23154e-4,17.6439 V 14.3545 C -0.00354216,13.1875 0.00819182,12.0205 0.0361215,10.8538 L 0.0473208,10.5435 C 0.0601202,10.1835 0.0761193,9.8299 0.0953183,9.40432 0.175314,7.70041 0.4441,6.54046 0.83928,5.51972 1.24104,4.45082 1.87238,3.48306 2.68879,2.68466 3.48729,1.87106 4.45372,1.24152 5.52064,0.839957 6.54139,0.444777 7.70133,0.175991 9.40524,0.095995 9.83082,0.076796 10.186,0.0607968 10.5444,0.0479975 l 0.3104,-0.0095996 c 1.1666,-0.02842608 2.3336,-0.0406933 3.5006,-0.0367981 z"
       fill="#d7b56d"
       id="path1"
       sodipodi:nodetypes="cccccccccccccccccccccccccccccccsccccccccccccccc"
       clip-path="url(#clipPath70)"
       inkscape:path-effect="#path-effect70"
       inkscape:original-d="m 17.6448,0 c 1.7999,0.00479975 2.7135,0.0143993 3.5022,0.0367981 l 0.3104,0.0111994 c 0.3584,0.0127993 0.712,0.0287985 1.1392,0.0479975 1.7023,0.079996 2.8638,0.348782 3.883,0.743962 1.0559,0.406383 1.9455,0.956753 2.835,1.844703 0.8136,0.7998 1.4431,1.76725 1.8447,2.83506 0.3952,1.01915 0.664,2.18069 0.744,3.8846 0.0192,0.42558 0.0352,0.77918 0.048,1.13918 l 0.0096,0.3103 c 0.024,0.7872 0.0336,1.7008 0.0368,3.5007 l 0.0016,1.1935 v 2.0959 c 0.0039,1.167 -0.0084,2.334 -0.0368,3.5006 l -0.0096,0.3104 c -0.0128,0.36 -0.0288,0.7136 -0.048,1.1391 -0.08,1.704 -0.352,2.8639 -0.7456,3.8846 -0.4005,1.0684 -1.0301,2.0361 -1.8447,2.8351 -0.8,0.8133 -1.7674,1.4427 -2.835,1.8447 -1.0192,0.3952 -2.1807,0.664 -3.883,0.744 -0.3797,0.0178 -0.7594,0.0338 -1.1392,0.048 L 21.147,31.96 c -0.7887,0.0224 -1.7023,0.0336 -3.5022,0.0368 l -1.1935,0.0016 H 14.357 c -1.1675,0.004 -2.3351,-0.0083 -3.5022,-0.0368 L 10.5444,31.952 C 10.1646,31.9376 9.78486,31.921 9.40524,31.9024 7.70293,31.8224 6.54139,31.5536 5.52064,31.1584 4.45297,30.7574 3.48589,30.1278 2.68719,29.3137 1.8729,28.5142 1.24282,27.5467 0.84088,26.4786 0.4457,25.4595 0.176914,24.298 0.0969181,22.594 0.0790932,22.2144 0.0630938,21.8347 0.0489207,21.4549 L 0.0409213,21.1445 C 0.011438,19.9779 -0.00189604,18.8109 9.23154e-4,17.6439 V 14.3545 C -0.00354216,13.1875 0.00819182,12.0205 0.0361215,10.8538 L 0.0473208,10.5435 C 0.0601202,10.1835 0.0761193,9.8299 0.0953183,9.40432 0.175314,7.70041 0.4441,6.54046 0.83928,5.51972 1.24104,4.45082 1.87238,3.48306 2.68879,2.68466 3.48729,1.87106 4.45372,1.24152 5.52064,0.839957 6.54139,0.444777 7.70133,0.175991 9.40524,0.095995 9.83082,0.076796 10.186,0.0607968 10.5444,0.0479975 l 0.3104,-0.0095996 c 1.1666,-0.02842608 2.3336,-0.0406933 3.5006,-0.0367981 z" /></g></svg>
