<?xml version="1.0" encoding="UTF-8" standalone="no"?>
<svg
   width="32"
   height="32"
   viewBox="0 0 32 32"
   fill="none"
   version="1.1"
   id="svg1"
   sodipodi:docname="icon-mail-bg.svg"
   xml:space="preserve"
   inkscape:version="1.3.2 (091e20e, 2023-11-25, custom)"
   xmlns:inkscape="http://www.inkscape.org/namespaces/inkscape"
   xmlns:sodipodi="http://sodipodi.sourceforge.net/DTD/sodipodi-0.dtd"
   xmlns="http://www.w3.org/2000/svg"
   xmlns:svg="http://www.w3.org/2000/svg"><defs
     id="defs1"><inkscape:path-effect
       effect="powerclip"
       id="path-effect61"
       is_visible="true"
       lpeversion="1"
       inverse="true"
       flatten="false"
       hide_clip="false"
       message="Use fill-rule evenodd on &lt;b&gt;fill and stroke&lt;/b&gt; dialog if no flatten result after convert clip to paths." /><inkscape:path-effect
       effect="powerclip"
       id="path-effect60"
       is_visible="true"
       lpeversion="1"
       inverse="true"
       flatten="false"
       hide_clip="false"
       message="Use fill-rule evenodd on &lt;b&gt;fill and stroke&lt;/b&gt; dialog if no flatten result after convert clip to paths." /><inkscape:path-effect
       effect="powerclip"
       id="path-effect15"
       is_visible="true"
       lpeversion="1"
       inverse="true"
       flatten="false"
       hide_clip="false"
       message="Use fill-rule evenodd on &lt;b&gt;fill and stroke&lt;/b&gt; dialog if no flatten result after convert clip to paths." /><filter
       id="mask-powermask-path-effect58_inverse"
       inkscape:label="filtermask-powermask-path-effect58"
       style="color-interpolation-filters:sRGB"
       height="100"
       width="100"
       x="-50"
       y="-50"><feColorMatrix
         id="mask-powermask-path-effect58_primitive1"
         values="1"
         type="saturate"
         result="fbSourceGraphic" /><feColorMatrix
         id="mask-powermask-path-effect58_primitive2"
         values="-1 0 0 0 1 0 -1 0 0 1 0 0 -1 0 1 0 0 0 1 0 "
         in="fbSourceGraphic" /></filter><clipPath
       clipPathUnits="userSpaceOnUse"
       id="clipPath60"><path
         style="color:#000000;display:none;fill:#ffffff;fill-opacity:0;stroke-linecap:round;stroke-linejoin:round;-inkscape-stroke:none"
         d="m 10.953125,11.654297 a 1.2095,1.2095 0 0 0 -1.6796875,0.318359 1.2095,1.2095 0 0 0 0.3164063,1.679688 l 5.7285152,3.904297 a 1.2096209,1.2096209 0 0 0 1.363282,0 l 5.726562,-3.904297 a 1.2095,1.2095 0 0 0 0.318359,-1.679688 1.2095,1.2095 0 0 0 -1.679687,-0.318359 L 16,15.09375 Z"
         id="path60" /><path
         id="lpe_path-effect60"
         style="color:#000000;fill:#ffffff;fill-opacity:0;stroke-linecap:round;stroke-linejoin:round;-inkscape-stroke:none"
         class="powerclip"
         d="M -5,-5 H 37.000004 V 36.999136 H -5 Z m 15.953125,16.654297 a 1.2095,1.2095 0 0 0 -1.6796875,0.318359 1.2095,1.2095 0 0 0 0.3164063,1.679688 l 5.7285152,3.904297 a 1.2096209,1.2096209 0 0 0 1.363282,0 l 5.726562,-3.904297 a 1.2095,1.2095 0 0 0 0.318359,-1.679688 1.2095,1.2095 0 0 0 -1.679687,-0.318359 L 16,15.09375 Z" /></clipPath><clipPath
       clipPathUnits="userSpaceOnUse"
       id="clipPath61"><path
         style="color:#000000;display:none;fill:#ffffff;fill-opacity:0;-inkscape-stroke:none"
         d="m 6.8359375,6.9804687 c -1.9019382,0 -3.5019531,1.5379225 -3.5019531,3.4414063 v 11.15625 c 0,1.903536 1.6000463,3.441406 3.5019531,3.441406 H 25.164062 c 1.901931,0 3.501954,-1.537934 3.501954,-3.441406 v -11.15625 c 0,-1.9034197 -1.599991,-3.4414063 -3.501954,-3.4414063 z m 0,2.4199219 H 25.164062 c 0.62886,0 1.082032,0.4603578 1.082032,1.0214844 v 11.15625 c 0,0.561304 -0.453141,1.021484 -1.082032,1.021484 H 6.8359375 c -0.6288184,0 -1.0820313,-0.460244 -1.0820313,-1.021484 v -11.15625 c 0,-0.5610626 0.4532442,-1.0214844 1.0820313,-1.0214844 z"
         id="path61" /><path
         id="lpe_path-effect61"
         style="color:#000000;fill:#ffffff;fill-opacity:0;-inkscape-stroke:none"
         class="powerclip"
         d="M -5,-5 H 37.000004 V 36.999136 H -5 Z M 6.8359375,6.9804687 c -1.9019382,0 -3.5019531,1.5379225 -3.5019531,3.4414063 v 11.15625 c 0,1.903536 1.6000463,3.441406 3.5019531,3.441406 H 25.164062 c 1.901931,0 3.501954,-1.537934 3.501954,-3.441406 v -11.15625 c 0,-1.9034197 -1.599991,-3.4414063 -3.501954,-3.4414063 z m 0,2.4199219 c -0.6287871,0 -1.0820313,0.4604218 -1.0820313,1.0214844 v 11.15625 c 0,0.56124 0.4532129,1.021484 1.0820313,1.021484 H 25.164062 c 0.628891,0 1.082032,-0.46018 1.082032,-1.021484 v -11.15625 c 0,-0.5611266 -0.453172,-1.0214844 -1.082032,-1.0214844 z" /></clipPath></defs><sodipodi:namedview
     id="namedview1"
     pagecolor="#ffffff"
     bordercolor="#000000"
     borderopacity="0.25"
     inkscape:showpageshadow="2"
     inkscape:pageopacity="0.0"
     inkscape:pagecheckerboard="0"
     inkscape:deskcolor="#d1d1d1"
     inkscape:zoom="17.169437"
     inkscape:cx="14.677243"
     inkscape:cy="17.269058"
     inkscape:window-width="1920"
     inkscape:window-height="991"
     inkscape:window-x="2391"
     inkscape:window-y="272"
     inkscape:window-maximized="1"
     inkscape:current-layer="svg1" /><g
     id="g61"
     clip-path="url(#clipPath61)"
     inkscape:path-effect="#path-effect61"><path
       d="m 17.6448,0 c 1.7999,0.00479975 2.7135,0.0143993 3.5022,0.0367981 l 0.3104,0.0111994 c 0.3584,0.0127993 0.712,0.0287985 1.1392,0.0479975 1.7023,0.079996 2.8638,0.348782 3.883,0.743962 1.0559,0.406383 1.9455,0.956753 2.835,1.844703 0.8136,0.7998 1.4431,1.76725 1.8447,2.83506 0.3952,1.01915 0.664,2.18069 0.744,3.8846 0.0192,0.42558 0.0352,0.77918 0.048,1.13918 l 0.0096,0.3103 c 0.024,0.7872 0.0336,1.7008 0.0368,3.5007 l 0.0016,1.1935 v 2.0959 c 0.0039,1.167 -0.0084,2.334 -0.0368,3.5006 l -0.0096,0.3104 c -0.0128,0.36 -0.0288,0.7136 -0.048,1.1391 -0.08,1.704 -0.352,2.8639 -0.7456,3.8846 -0.4005,1.0684 -1.0301,2.0361 -1.8447,2.8351 -0.8,0.8133 -1.7674,1.4427 -2.835,1.8447 -1.0192,0.3952 -2.1807,0.664 -3.883,0.744 -0.3797,0.0178 -0.7594,0.0338 -1.1392,0.048 L 21.147,31.96 c -0.7887,0.0224 -1.7023,0.0336 -3.5022,0.0368 l -1.1935,0.0016 H 14.357 c -1.1675,0.004 -2.3351,-0.0083 -3.5022,-0.0368 L 10.5444,31.952 C 10.1646,31.9376 9.78486,31.921 9.40524,31.9024 7.70293,31.8224 6.54139,31.5536 5.52064,31.1584 4.45297,30.7574 3.48589,30.1278 2.68719,29.3137 1.8729,28.5142 1.24282,27.5467 0.84088,26.4786 0.4457,25.4595 0.176914,24.298 0.0969181,22.594 0.0790932,22.2144 0.0630938,21.8347 0.0489207,21.4549 L 0.0409213,21.1445 C 0.011438,19.9779 -0.00189604,18.8109 9.23154e-4,17.6439 V 14.3545 C -0.00354216,13.1875 0.00819182,12.0205 0.0361215,10.8538 L 0.0473208,10.5435 C 0.0601202,10.1835 0.0761193,9.8299 0.0953183,9.40432 0.175314,7.70041 0.4441,6.54046 0.83928,5.51972 1.24104,4.45082 1.87238,3.48306 2.68879,2.68466 3.48729,1.87106 4.45372,1.24152 5.52064,0.839957 6.54139,0.444777 7.70133,0.175991 9.40524,0.095995 9.83082,0.076796 10.186,0.0607968 10.5444,0.0479975 l 0.3104,-0.0095996 c 1.1666,-0.02842608 2.3336,-0.0406933 3.5006,-0.0367981 z"
       fill="#d7b56d"
       id="path1"
       sodipodi:nodetypes="cccccccccccccccccccccccccccccccsccccccccccccccc"
       clip-path="url(#clipPath60)"
       inkscape:path-effect="#path-effect60"
       inkscape:original-d="m 17.6448,0 c 1.7999,0.00479975 2.7135,0.0143993 3.5022,0.0367981 l 0.3104,0.0111994 c 0.3584,0.0127993 0.712,0.0287985 1.1392,0.0479975 1.7023,0.079996 2.8638,0.348782 3.883,0.743962 1.0559,0.406383 1.9455,0.956753 2.835,1.844703 0.8136,0.7998 1.4431,1.76725 1.8447,2.83506 0.3952,1.01915 0.664,2.18069 0.744,3.8846 0.0192,0.42558 0.0352,0.77918 0.048,1.13918 l 0.0096,0.3103 c 0.024,0.7872 0.0336,1.7008 0.0368,3.5007 l 0.0016,1.1935 v 2.0959 c 0.0039,1.167 -0.0084,2.334 -0.0368,3.5006 l -0.0096,0.3104 c -0.0128,0.36 -0.0288,0.7136 -0.048,1.1391 -0.08,1.704 -0.352,2.8639 -0.7456,3.8846 -0.4005,1.0684 -1.0301,2.0361 -1.8447,2.8351 -0.8,0.8133 -1.7674,1.4427 -2.835,1.8447 -1.0192,0.3952 -2.1807,0.664 -3.883,0.744 -0.3797,0.0178 -0.7594,0.0338 -1.1392,0.048 L 21.147,31.96 c -0.7887,0.0224 -1.7023,0.0336 -3.5022,0.0368 l -1.1935,0.0016 H 14.357 c -1.1675,0.004 -2.3351,-0.0083 -3.5022,-0.0368 L 10.5444,31.952 C 10.1646,31.9376 9.78486,31.921 9.40524,31.9024 7.70293,31.8224 6.54139,31.5536 5.52064,31.1584 4.45297,30.7574 3.48589,30.1278 2.68719,29.3137 1.8729,28.5142 1.24282,27.5467 0.84088,26.4786 0.4457,25.4595 0.176914,24.298 0.0969181,22.594 0.0790932,22.2144 0.0630938,21.8347 0.0489207,21.4549 L 0.0409213,21.1445 C 0.011438,19.9779 -0.00189604,18.8109 9.23154e-4,17.6439 V 14.3545 C -0.00354216,13.1875 0.00819182,12.0205 0.0361215,10.8538 L 0.0473208,10.5435 C 0.0601202,10.1835 0.0761193,9.8299 0.0953183,9.40432 0.175314,7.70041 0.4441,6.54046 0.83928,5.51972 1.24104,4.45082 1.87238,3.48306 2.68879,2.68466 3.48729,1.87106 4.45372,1.24152 5.52064,0.839957 6.54139,0.444777 7.70133,0.175991 9.40524,0.095995 9.83082,0.076796 10.186,0.0607968 10.5444,0.0479975 l 0.3104,-0.0095996 c 1.1666,-0.02842608 2.3336,-0.0406933 3.5006,-0.0367981 z" /></g></svg>
