<?xml version="1.0" encoding="UTF-8" standalone="no"?>
<svg
   width="32"
   height="32"
   viewBox="0 0 32 32"
   fill="none"
   version="1.1"
   id="svg1"
   sodipodi:docname="icon-phone-bg.svg"
   xml:space="preserve"
   inkscape:version="1.3.2 (091e20e, 2023-11-25, custom)"
   xmlns:inkscape="http://www.inkscape.org/namespaces/inkscape"
   xmlns:sodipodi="http://sodipodi.sourceforge.net/DTD/sodipodi-0.dtd"
   xmlns="http://www.w3.org/2000/svg"
   xmlns:svg="http://www.w3.org/2000/svg"><defs
     id="defs1"><inkscape:path-effect
       effect="powerclip"
       id="path-effect23"
       is_visible="true"
       lpeversion="1"
       inverse="true"
       flatten="false"
       hide_clip="false"
       message="Use fill-rule evenodd on &lt;b&gt;fill and stroke&lt;/b&gt; dialog if no flatten result after convert clip to paths." /><inkscape:path-effect
       effect="powerclip"
       id="path-effect15"
       is_visible="true"
       lpeversion="1"
       inverse="true"
       flatten="false"
       hide_clip="false"
       message="Use fill-rule evenodd on &lt;b&gt;fill and stroke&lt;/b&gt; dialog if no flatten result after convert clip to paths." /><clipPath
       clipPathUnits="userSpaceOnUse"
       id="clipPath23"><path
         style="color:#000000;display:none;fill:#ffffff;fill-opacity:1;stroke-width:1.0417;stroke-linecap:round;stroke-linejoin:round;-inkscape-stroke:none"
         d="m 8.1056587,3.6340881 c -1.8407783,0 -3.1902446,1.7658146 -2.9481046,3.6296886 0.4272623,3.2885083 1.6387059,9.2397893 5.4567399,13.6784733 1.639714,1.90634 3.56112,3.353524 5.46081,4.451658 2.71787,1.571092 5.394089,2.433716 7.210547,2.893171 0.965471,0.244301 1.95962,-0.101233 2.596122,-0.732448 0.636504,-0.631219 0.988806,-1.521158 0.988806,-2.486256 v -4.093572 a 1.1447652,1.1447652 0 0 0 -0.681584,-1.045774 l -3.8128,-1.690735 a 1.1447652,1.1447652 0 0 0 -0.714138,-0.06918 l -3.519821,0.79349 C 16.924194,18.212117 15.907573,17.444229 15.165647,16.531283 14.526952,15.745365 14.049323,14.823022 13.651921,13.737806 L 14.351816,9.3797387 A 1.1447652,1.1447652 0 0 0 14.309089,8.846679 L 12.880815,4.4255394 A 1.1447652,1.1447652 0 0 0 11.790281,3.6340881 Z m 0,2.2889012 h 2.8524793 l 1.0885,3.3651933 -0.712103,4.4455544 a 1.1447652,1.1447652 0 0 0 0.04679,0.553406 c 0.484779,1.408986 1.147526,2.629713 2.00813,3.68869 1.029317,1.266582 2.329027,2.291703 3.900287,3.208531 a 1.1447652,1.1447652 0 0 0 0.830108,0.128178 l 3.67445,-0.828073 2.787372,1.234989 v 3.348917 c 0,0.396237 -0.154308,0.704948 -0.31129,0.860627 C 24.1134,26.084681 24.026015,26.112603 23.84719,26.067353 22.175481,25.64451 19.68698,24.837959 17.220572,23.412228 15.496647,22.415697 13.785798,21.120414 12.34979,19.450903 9.048712,15.613211 7.8248473,10.037728 7.4261094,6.9687628 7.3374172,6.2860539 7.7311116,5.9229893 8.1056587,5.9229893 Z"
         id="path23"
         inkscape:label="path20" /><path
         id="lpe_path-effect23"
         style="color:#000000;fill:#ffffff;fill-opacity:1;stroke-width:1.0417;stroke-linecap:round;stroke-linejoin:round;-inkscape-stroke:none"
         class="powerclip"
         d="M -5,-5 H 37.000004 V 36.999136 H -5 Z M 8.1056587,3.6340881 c -1.8407783,0 -3.1902446,1.7658146 -2.9481046,3.6296886 0.4272623,3.2885083 1.6387059,9.2397893 5.4567399,13.6784733 1.639714,1.90634 3.56112,3.353524 5.46081,4.451658 2.71787,1.571092 5.394089,2.433716 7.210547,2.893171 0.965471,0.244301 1.95962,-0.101233 2.596122,-0.732448 0.636504,-0.631219 0.988806,-1.521158 0.988806,-2.486256 v -4.093572 a 1.1447652,1.1447652 0 0 0 -0.681584,-1.045774 l -3.8128,-1.690735 a 1.1447652,1.1447652 0 0 0 -0.714138,-0.06918 l -3.519821,0.79349 C 16.924194,18.212117 15.907573,17.444229 15.165647,16.531283 14.526952,15.745365 14.049323,14.823022 13.651921,13.737806 L 14.351816,9.3797387 A 1.1447652,1.1447652 0 0 0 14.309089,8.846679 L 12.880815,4.4255394 A 1.1447652,1.1447652 0 0 0 11.790281,3.6340881 Z m 0,2.2889012 c -0.3745471,0 -0.7682415,0.3630646 -0.6795493,1.0457735 0.3987379,3.0689652 1.6226026,8.6444482 4.9236806,12.4821402 1.436008,1.669511 3.146857,2.964794 4.870782,3.961325 2.466408,1.425731 4.954909,2.232282 6.626618,2.655125 0.178825,0.04525 0.26621,0.01733 0.423192,-0.138351 0.156982,-0.155679 0.31129,-0.46439 0.31129,-0.860627 V 21.719458 L 21.7943,20.484469 18.11985,21.312542 a 1.1447652,1.1447652 0 0 1 -0.830108,-0.128178 c -1.57126,-0.916828 -2.87097,-1.941949 -3.900287,-3.208531 -0.860604,-1.058977 -1.523351,-2.279704 -2.00813,-3.68869 a 1.1447652,1.1447652 0 0 1 -0.04679,-0.553406 l 0.712103,-4.4455544 -1.0885,-3.3651933 z" /></clipPath></defs><sodipodi:namedview
     id="namedview1"
     pagecolor="#ffffff"
     bordercolor="#000000"
     borderopacity="0.25"
     inkscape:showpageshadow="2"
     inkscape:pageopacity="0.0"
     inkscape:pagecheckerboard="0"
     inkscape:deskcolor="#d1d1d1"
     inkscape:zoom="17.169437"
     inkscape:cx="14.677243"
     inkscape:cy="17.269058"
     inkscape:window-width="1920"
     inkscape:window-height="991"
     inkscape:window-x="2391"
     inkscape:window-y="272"
     inkscape:window-maximized="1"
     inkscape:current-layer="svg1" /><path
     d="m 17.6448,0 c 1.7999,0.00479975 2.7135,0.0143993 3.5022,0.0367981 l 0.3104,0.0111994 c 0.3584,0.0127993 0.712,0.0287985 1.1392,0.0479975 1.7023,0.079996 2.8638,0.348782 3.883,0.743962 1.0559,0.406383 1.9455,0.956753 2.835,1.844703 0.8136,0.7998 1.4431,1.76725 1.8447,2.83506 0.3952,1.01915 0.664,2.18069 0.744,3.8846 0.0192,0.42558 0.0352,0.77918 0.048,1.13918 l 0.0096,0.3103 c 0.024,0.7872 0.0336,1.7008 0.0368,3.5007 l 0.0016,1.1935 v 2.0959 c 0.0039,1.167 -0.0084,2.334 -0.0368,3.5006 l -0.0096,0.3104 c -0.0128,0.36 -0.0288,0.7136 -0.048,1.1391 -0.08,1.704 -0.352,2.8639 -0.7456,3.8846 -0.4005,1.0684 -1.0301,2.0361 -1.8447,2.8351 -0.8,0.8133 -1.7674,1.4427 -2.835,1.8447 -1.0192,0.3952 -2.1807,0.664 -3.883,0.744 -0.3797,0.0178 -0.7594,0.0338 -1.1392,0.048 L 21.147,31.96 c -0.7887,0.0224 -1.7023,0.0336 -3.5022,0.0368 l -1.1935,0.0016 H 14.357 c -1.1675,0.004 -2.3351,-0.0083 -3.5022,-0.0368 L 10.5444,31.952 C 10.1646,31.9376 9.78486,31.921 9.40524,31.9024 7.70293,31.8224 6.54139,31.5536 5.52064,31.1584 4.45297,30.7574 3.48589,30.1278 2.68719,29.3137 1.8729,28.5142 1.24282,27.5467 0.84088,26.4786 0.4457,25.4595 0.176914,24.298 0.0969181,22.594 0.0790932,22.2144 0.0630938,21.8347 0.0489207,21.4549 L 0.0409213,21.1445 C 0.011438,19.9779 -0.00189604,18.8109 9.23154e-4,17.6439 V 14.3545 C -0.00354216,13.1875 0.00819182,12.0205 0.0361215,10.8538 L 0.0473208,10.5435 C 0.0601202,10.1835 0.0761193,9.8299 0.0953183,9.40432 0.175314,7.70041 0.4441,6.54046 0.83928,5.51972 1.24104,4.45082 1.87238,3.48306 2.68879,2.68466 3.48729,1.87106 4.45372,1.24152 5.52064,0.839957 6.54139,0.444777 7.70133,0.175991 9.40524,0.095995 9.83082,0.076796 10.186,0.0607968 10.5444,0.0479975 l 0.3104,-0.0095996 c 1.1666,-0.02842608 2.3336,-0.0406933 3.5006,-0.0367981 z"
     fill="#d7b56d"
     id="path1"
     sodipodi:nodetypes="cccccccccccccccccccccccccccccccsccccccccccccccc"
     clip-path="url(#clipPath23)"
     inkscape:path-effect="#path-effect23"
     inkscape:original-d="m 17.6448,0 c 1.7999,0.00479975 2.7135,0.0143993 3.5022,0.0367981 l 0.3104,0.0111994 c 0.3584,0.0127993 0.712,0.0287985 1.1392,0.0479975 1.7023,0.079996 2.8638,0.348782 3.883,0.743962 1.0559,0.406383 1.9455,0.956753 2.835,1.844703 0.8136,0.7998 1.4431,1.76725 1.8447,2.83506 0.3952,1.01915 0.664,2.18069 0.744,3.8846 0.0192,0.42558 0.0352,0.77918 0.048,1.13918 l 0.0096,0.3103 c 0.024,0.7872 0.0336,1.7008 0.0368,3.5007 l 0.0016,1.1935 v 2.0959 c 0.0039,1.167 -0.0084,2.334 -0.0368,3.5006 l -0.0096,0.3104 c -0.0128,0.36 -0.0288,0.7136 -0.048,1.1391 -0.08,1.704 -0.352,2.8639 -0.7456,3.8846 -0.4005,1.0684 -1.0301,2.0361 -1.8447,2.8351 -0.8,0.8133 -1.7674,1.4427 -2.835,1.8447 -1.0192,0.3952 -2.1807,0.664 -3.883,0.744 -0.3797,0.0178 -0.7594,0.0338 -1.1392,0.048 L 21.147,31.96 c -0.7887,0.0224 -1.7023,0.0336 -3.5022,0.0368 l -1.1935,0.0016 H 14.357 c -1.1675,0.004 -2.3351,-0.0083 -3.5022,-0.0368 L 10.5444,31.952 C 10.1646,31.9376 9.78486,31.921 9.40524,31.9024 7.70293,31.8224 6.54139,31.5536 5.52064,31.1584 4.45297,30.7574 3.48589,30.1278 2.68719,29.3137 1.8729,28.5142 1.24282,27.5467 0.84088,26.4786 0.4457,25.4595 0.176914,24.298 0.0969181,22.594 0.0790932,22.2144 0.0630938,21.8347 0.0489207,21.4549 L 0.0409213,21.1445 C 0.011438,19.9779 -0.00189604,18.8109 9.23154e-4,17.6439 V 14.3545 C -0.00354216,13.1875 0.00819182,12.0205 0.0361215,10.8538 L 0.0473208,10.5435 C 0.0601202,10.1835 0.0761193,9.8299 0.0953183,9.40432 0.175314,7.70041 0.4441,6.54046 0.83928,5.51972 1.24104,4.45082 1.87238,3.48306 2.68879,2.68466 3.48729,1.87106 4.45372,1.24152 5.52064,0.839957 6.54139,0.444777 7.70133,0.175991 9.40524,0.095995 9.83082,0.076796 10.186,0.0607968 10.5444,0.0479975 l 0.3104,-0.0095996 c 1.1666,-0.02842608 2.3336,-0.0406933 3.5006,-0.0367981 z" /><g
     style="fill:none"
     id="g2"
     transform="matrix(1.5057546,0,0,1.5057546,-12.35602,4.5137012)"><g
       id="g1"><title
         id="title1">Layer 1</title></g></g></svg>
